<?xml version="1.0" encoding="UTF-8" standalone="no"?>
<!DOCTYPE svg PUBLIC "-//W3C//DTD SVG 1.1//EN"
 "http://www.w3.org/Graphics/SVG/1.1/DTD/svg11.dtd">
<!-- Generated by graphviz version 9.0.0 (20230911.1827)
 -->
<!-- Pages: 1 -->
<svg width="382pt" height="232pt"
 viewBox="0.00 0.00 381.56 232.33" xmlns="http://www.w3.org/2000/svg" xmlns:xlink="http://www.w3.org/1999/xlink">
<g id="graph0" class="graph" transform="scale(1 1) rotate(0) translate(4 228.33)">
<polygon fill="white" stroke="none" points="-4,4 -4,-228.33 377.56,-228.33 377.56,4 -4,4"/>
<!-- 3 -->
<g id="node1" class="node">
<title>3</title>
<ellipse fill="none" stroke="black" cx="191.04" cy="-41.8" rx="18" ry="18"/>
<text text-anchor="middle" x="191.04" y="-36.38" font-family="Times New Roman,serif" font-size="14.00">3</text>
</g>
<!-- 1 -->
<g id="node2" class="node">
<title>1</title>
<ellipse fill="none" stroke="black" cx="278.74" cy="-81.3" rx="18" ry="18"/>
<text text-anchor="middle" x="278.74" y="-75.87" font-family="Times New Roman,serif" font-size="14.00">1</text>
</g>
<!-- 3&#45;&gt;1 -->
<g id="edge1" class="edge">
<title>3&#45;&gt;1</title>
<path fill="none" stroke="#000000" stroke-opacity="0.501961" d="M209.23,-42.19C230.42,-43.14 238.49,-46.8 260.26,-65.24"/>
<polygon fill="#000000" fill-opacity="0.501961" stroke="#000000" stroke-opacity="0.501961" points="259.03,-66.5 263.97,-68.42 261.31,-63.84 259.03,-66.5"/>
</g>
<!-- 10 -->
<g id="node10" class="node">
<title>10</title>
<ellipse fill="none" stroke="black" cx="118.73" cy="-55.31" rx="19.63" ry="19.63"/>
<text text-anchor="middle" x="118.73" y="-49.89" font-family="Times New Roman,serif" font-size="14.00">10</text>
</g>
<!-- 3&#45;&gt;10 -->
<g id="edge13" class="edge">
<title>3&#45;&gt;10</title>
<path fill="none" stroke="#000000" stroke-opacity="0.501961" d="M173.07,-38.7C158.25,-36.44 150.95,-36.82 140.95,-41.73"/>
<polygon fill="#000000" fill-opacity="0.501961" stroke="#000000" stroke-opacity="0.501961" points="140.32,-40.09 136.76,-44.01 141.99,-43.16 140.32,-40.09"/>
</g>
<!-- 4 -->
<g id="node5" class="node">
<title>4</title>
<ellipse fill="none" stroke="black" cx="237.79" cy="-160.85" rx="18" ry="18"/>
<text text-anchor="middle" x="237.79" y="-155.43" font-family="Times New Roman,serif" font-size="14.00">4</text>
</g>
<!-- 1&#45;&gt;4 -->
<g id="edge4" class="edge">
<title>1&#45;&gt;4</title>
<path fill="none" stroke="#000000" stroke-opacity="0.501961" d="M275.65,-99.47C271.11,-125.04 267.97,-133.8 256.28,-145.08"/>
<polygon fill="#000000" fill-opacity="0.501961" stroke="#000000" stroke-opacity="0.501961" points="255.2,-143.71 252.69,-148.37 257.56,-146.29 255.2,-143.71"/>
</g>
<!-- 6 -->
<g id="node8" class="node">
<title>6</title>
<ellipse fill="none" stroke="black" cx="355.56" cy="-78.29" rx="18" ry="18"/>
<text text-anchor="middle" x="355.56" y="-72.86" font-family="Times New Roman,serif" font-size="14.00">6</text>
</g>
<!-- 1&#45;&gt;6 -->
<g id="edge7" class="edge">
<title>1&#45;&gt;6</title>
<path fill="none" stroke="#000000" stroke-opacity="0.501961" d="M296.87,-79.54C313.9,-77.9 323.39,-77.11 330.89,-76.93"/>
<polygon fill="#000000" fill-opacity="0.501961" stroke="#000000" stroke-opacity="0.501961" points="330.87,-78.68 335.87,-76.94 330.87,-75.18 330.87,-78.68"/>
</g>
<!-- 8 -->
<g id="node3" class="node">
<title>8</title>
<ellipse fill="none" stroke="black" cx="130.14" cy="-127.55" rx="18" ry="18"/>
<text text-anchor="middle" x="130.14" y="-122.13" font-family="Times New Roman,serif" font-size="14.00">8</text>
</g>
<!-- 2 -->
<g id="node4" class="node">
<title>2</title>
<ellipse fill="none" stroke="black" cx="117.3" cy="-206.33" rx="18" ry="18"/>
<text text-anchor="middle" x="117.3" y="-200.91" font-family="Times New Roman,serif" font-size="14.00">2</text>
</g>
<!-- 8&#45;&gt;2 -->
<g id="edge2" class="edge">
<title>8&#45;&gt;2</title>
<path fill="none" stroke="#000000" stroke-opacity="0.501961" d="M123.89,-144.52C116.96,-163.59 114.2,-172.82 114.01,-181.93"/>
<polygon fill="#000000" fill-opacity="0.501961" stroke="#000000" stroke-opacity="0.501961" points="112.26,-181.9 114.22,-186.82 115.76,-181.76 112.26,-181.9"/>
</g>
<!-- 8&#45;&gt;4 -->
<g id="edge5" class="edge">
<title>8&#45;&gt;4</title>
<path fill="none" stroke="#000000" stroke-opacity="0.501961" d="M145.62,-137.32C180.4,-159.11 190.85,-163.94 213.19,-162.99"/>
<polygon fill="#000000" fill-opacity="0.501961" stroke="#000000" stroke-opacity="0.501961" points="213.1,-164.75 217.98,-162.7 212.88,-161.26 213.1,-164.75"/>
</g>
<!-- 4&#45;&gt;3 -->
<g id="edge3" class="edge">
<title>4&#45;&gt;3</title>
<path fill="none" stroke="#000000" stroke-opacity="0.501961" d="M225.34,-147.27C195.53,-114.41 190.93,-105.14 190.79,-66.6"/>
<polygon fill="#000000" fill-opacity="0.501961" stroke="#000000" stroke-opacity="0.501961" points="192.54,-66.68 190.8,-61.67 189.04,-66.67 192.54,-66.68"/>
</g>
<!-- 9 -->
<g id="node6" class="node">
<title>9</title>
<ellipse fill="none" stroke="black" cx="56.35" cy="-18" rx="18" ry="18"/>
<text text-anchor="middle" x="56.35" y="-12.57" font-family="Times New Roman,serif" font-size="14.00">9</text>
</g>
<!-- 9&#45;&gt;9 -->
<g id="edge11" class="edge">
<title>9&#45;&gt;9</title>
<path fill="none" stroke="#000000" stroke-opacity="0.501961" d="M73.39,-24.38C83.21,-25.68 92.35,-23.55 92.35,-18 92.35,-13.66 86.77,-11.41 79.65,-11.26"/>
<polygon fill="#000000" fill-opacity="0.501961" stroke="#000000" stroke-opacity="0.501961" points="79.79,-9.5 74.9,-11.53 79.99,-12.99 79.79,-9.5"/>
</g>
<!-- 5 -->
<g id="node7" class="node">
<title>5</title>
<ellipse fill="none" stroke="black" cx="61.32" cy="-78.86" rx="18" ry="18"/>
<text text-anchor="middle" x="61.32" y="-73.43" font-family="Times New Roman,serif" font-size="14.00">5</text>
</g>
<!-- 9&#45;&gt;5 -->
<g id="edge6" class="edge">
<title>9&#45;&gt;5</title>
<path fill="none" stroke="#000000" stroke-opacity="0.501961" d="M51.13,-35.6C49.94,-42.05 50.49,-47.37 53.16,-56.01"/>
<polygon fill="#000000" fill-opacity="0.501961" stroke="#000000" stroke-opacity="0.501961" points="51.39,-56.23 54.62,-60.43 54.71,-55.13 51.39,-56.23"/>
</g>
<!-- 9&#45;&gt;10 -->
<g id="edge12" class="edge">
<title>9&#45;&gt;10</title>
<path fill="none" stroke="#000000" stroke-opacity="0.501961" d="M72.48,-26.36C78.36,-29.63 84.68,-33.52 96.54,-41.09"/>
<polygon fill="#000000" fill-opacity="0.501961" stroke="#000000" stroke-opacity="0.501961" points="95.55,-42.53 100.7,-43.75 97.43,-39.58 95.55,-42.53"/>
</g>
<!-- 5&#45;&gt;8 -->
<g id="edge9" class="edge">
<title>5&#45;&gt;8</title>
<path fill="none" stroke="#000000" stroke-opacity="0.501961" d="M72.93,-93.05C80.32,-100.98 87.92,-105.82 108.04,-116.26"/>
<polygon fill="#000000" fill-opacity="0.501961" stroke="#000000" stroke-opacity="0.501961" points="107.16,-117.77 112.4,-118.51 108.76,-114.66 107.16,-117.77"/>
</g>
<!-- 7 -->
<g id="node9" class="node">
<title>7</title>
<ellipse fill="none" stroke="black" cx="18" cy="-99.93" rx="18" ry="18"/>
<text text-anchor="middle" x="18" y="-94.5" font-family="Times New Roman,serif" font-size="14.00">7</text>
</g>
<!-- 7&#45;&gt;7 -->
<g id="edge8" class="edge">
<title>7&#45;&gt;7</title>
<path fill="none" stroke="#000000" stroke-opacity="0.501961" d="M35.04,-106.31C44.86,-107.61 54,-105.48 54,-99.93 54,-95.59 48.42,-93.34 41.3,-93.19"/>
<polygon fill="#000000" fill-opacity="0.501961" stroke="#000000" stroke-opacity="0.501961" points="41.44,-91.43 36.55,-93.46 41.64,-94.92 41.44,-91.43"/>
</g>
<!-- 7&#45;&gt;10 -->
<g id="edge14" class="edge">
<title>7&#45;&gt;10</title>
<path fill="none" stroke="#000000" stroke-opacity="0.501961" d="M31.24,-87.31C46.41,-73.66 56.14,-69.77 93.17,-61.14"/>
<polygon fill="#000000" fill-opacity="0.501961" stroke="#000000" stroke-opacity="0.501961" points="93.4,-62.88 97.88,-60.05 92.61,-59.47 93.4,-62.88"/>
</g>
<!-- 10&#45;&gt;8 -->
<g id="edge10" class="edge">
<title>10&#45;&gt;8</title>
<path fill="none" stroke="#000000" stroke-opacity="0.501961" d="M114.12,-74.83C111.99,-86.5 113.02,-93.36 118.83,-105.76"/>
<polygon fill="#000000" fill-opacity="0.501961" stroke="#000000" stroke-opacity="0.501961" points="117.18,-106.36 120.95,-110.08 120.32,-104.82 117.18,-106.36"/>
</g>
</g>
</svg>
